<?xml version="1.0" encoding="UTF-8"?> <svg xmlns="http://www.w3.org/2000/svg" id="Layer_1" data-name="Layer 1" viewBox="0 0 80.92 85.9"> <defs> <style> .cls-1 { fill: #fff; } </style> </defs> <path class="cls-1" d="M74.77,10.45h-22.85c.59-1.06,.92-2.22,.92-3.41C52.84,3.16,49.68,0,45.79,0h0c-1.88,0-3.65,.73-4.98,2.06-.2,.2-.39,.41-.56,.64-1.29-1.64-3.29-2.7-5.54-2.7-3.88,0-7.04,3.16-7.04,7.04,0,1.19,.32,2.35,.92,3.41H6.15c-3.39,0-6.15,3.11-6.15,6.93V84.4c0,.83,.67,1.5,1.5,1.5H11.78c.83,0,1.5-.67,1.5-1.5v-24.51c9.26-.29,22.75-4.18,27.08-23.33,3.36,14.01,12.75,22.12,27.28,23.25v24.58c0,.83,.67,1.5,1.5,1.5h10.28c.83,0,1.5-.67,1.5-1.5V17.39c0-3.82-2.76-6.93-6.15-6.93ZM34.71,3c2.23,0,4.04,1.81,4.04,4.04,0,.83,.67,1.5,1.5,1.5s1.5-.67,1.5-1.5c0-1.08,.42-2.09,1.18-2.85s1.78-1.18,2.86-1.18h0c2.23,0,4.04,1.81,4.04,4.04,0,.74-.2,1.45-.61,2.1l-1.17,1.46c-.41,.2-.71,.57-.81,1.02l-7,8.77-8.77-10.96c-.53-.71-.81-1.54-.81-2.39,0-2.23,1.81-4.04,4.04-4.04ZM10.28,82.9H3V17.39c0-2.17,1.41-3.93,3.15-3.93H30.85l6.43,8.03h-3.56s-1.6,.09-1.6,.09l-17.06-.05c-2.68,0-4.79,2.72-4.79,6.19v55.18h0Zm3-26.01V27.72c0-1.83,.94-3.19,1.78-3.19l17.15,.05,1.6-.1h4.91c-.56,25.87-13.8,32.04-25.44,32.41ZM41.97,24.49l23.89,.04c.84,0,1.78,1.36,1.78,3.19v29.09c-20.81-1.73-25.52-18.26-25.67-32.31Zm35.95,58.41h-7.28V27.72c0-3.47-2.1-6.19-4.78-6.19l-22.65-.03,6.42-8.04h25.14c1.74,0,3.15,1.76,3.15,3.93V82.9Z"></path> </svg> 